<svg width="178" height="278" viewBox="0 0 178 278" fill="none" xmlns="http://www.w3.org/2000/svg">
<path d="M177.4 138.4C177.4 148.2 177.9 156.9 177.3 165.4C175.9 187 169.1 206.5 152.8 221.6C144 229.7 133.9 235.1 121.8 236.5C113.1 237.5 111 240.4 112.8 249.2C114.6 257.7 116.7 266 118.7 274.5C118.9 275.3 119 276.1 119.2 277.1C115.7 277.1 112.4 277.1 108.1 277.1C107.2 269.1 106.5 261.2 105.3 253.4C104 244 103.1 234.5 100.5 225.5C97 213.4 88.7 205.6 75.4 205.7C52.2 206 37.1 193.6 25.4 175.3C12.1 154.6 4.7 131.6 0 107.5C9.7 123.2 25.1 132 40 141.4C47.4 146.1 54.7 151.2 61.6 156.7C71.5 164.7 77.9 175.1 80.2 187.7C82.4 199.7 89.8 207.7 100.6 215C98.3 199.8 97 185.7 93.9 172C89.6 153.3 78 139.4 61.9 129C49.5 121.1 38.7 111.6 33.4 97.2C28.8 84.6 27.5 71.5999 28.5 58.2999C29.1 50.4999 30 42.8 30.9 34.2C40.7 40 47.6 47.2999 53.4 55.8999C61.3 67.8999 64.6 81.5 66.1 95.5C68.2 115.8 75.6 133.8 88.2 149.7C89.1 150.8 90.1 152 92 154.3C92 150.5 92.2 148.2 92 145.9C90.4 131.8 86.9 118.1 81.9 104.8C71.5 76.6999 74.7 49.9 90.7 24.6C95.8 16.5 100.5 8.09995 104.9 0.699951C108.2 9.69995 110.9 19.3999 115.4 28.2999C125.4 48.0999 123.7 67.1999 114 86.2999C110.8 92.4999 107.8 98.9 104.5 105C95.2 122.2 92.8 140.1 97.7 159.1C99 164 99.6 169.1 100.6 174C101.1 174.1 101.6 174.3 102 174.4C103.1 173 104.6 171.8 105.3 170.2C108.4 163.8 109 157.2 106.8 150.3C104.1 141.7 102.5 132.8 104.7 123.7C106.9 114.7 111.8 107.2 118.2 100.7C130.8 87.9 143.6 75.3 156.9 62C157.5 67.9 158.3 73.8999 158.7 79.7999C159.7 98.0999 157.6 116 150.5 133.1C145.6 144.8 137.9 153.8 126.2 159.1C125.7 159.3 125.3 159.6 124.9 159.8C107.6 168.7 100.6 183 103.9 202.5C105.1 209.2 106.1 216 107.2 222.7C107.5 224.5 107.7 226.5 108.6 228C109.7 229.8 111.5 231.2 113 232.8C114.4 231.1 116.4 229.5 116.9 227.6C117.8 224.1 118.4 220.3 118.1 216.7C116.2 194.4 126.6 178.1 143.8 165.7C154.4 158.1 164.7 150.3 173.5 140.7C174.5 140.5 175.4 140 177.4 138.4Z" fill="#EEF8F8"/>
</svg>
